<mxfile host="app.diagrams.net" modified="2024-07-04T08:18:25.999Z" agent="Mozilla/5.0 (Macintosh; Intel Mac OS X 10_15_7) AppleWebKit/537.36 (KHTML, like Gecko) Chrome/126.0.0.0 Safari/537.36" version="24.5.3" etag="Mmmfc386FHoJNNovr102" type="github">
  <diagram name="第 1 页" id="HAZO5vTfmv91XBUMKnSl">
    <mxGraphModel>
      <root>
        <mxCell id="0" />
        <mxCell id="1" parent="0" />
      </root>
    </mxGraphModel>
  </diagram>
</mxfile>
